<svg width="240" height="200" viewBox="0 0 240 200" fill="none" xmlns="http://www.w3.org/2000/svg">
<circle cx="120" cy="100" r="97.5" fill="white" stroke="#1C1C1C" stroke-width="5"/>
<g filter="url(#filter0_d_119_200)">
<path d="M101 87C109.658 70.9233 128.438 71.4773 136.746 73.7639" stroke="black" stroke-width="25"/>
</g>
<g filter="url(#filter1_d_119_200)">
<circle cx="59" cy="104" r="55" fill="#5C5C5C"/>
<circle cx="59" cy="104" r="52.5" stroke="#1C1C1C" stroke-width="5"/>
</g>
<circle cx="59" cy="104" r="44" fill="white" stroke="#1C1C1C" stroke-width="2" stroke-dasharray="5 15 5 3"/>
<g filter="url(#filter2_d_119_200)">
<circle cx="181" cy="63" r="55" fill="#5C5C5C"/>
<circle cx="181" cy="63" r="52.5" stroke="#1C1C1C" stroke-width="5"/>
</g>
<circle cx="181" cy="63" r="44" fill="white" stroke="#1C1C1C" stroke-width="2" stroke-dasharray="5 15 5 3"/>
<path d="M89.5068 169.603C89.3841 169.551 89.3042 169.466 89.2671 169.349C89.23 169.232 89.2506 169.081 89.3288 168.897C89.4384 168.64 89.6078 168.48 89.8369 168.418C90.0713 168.344 90.4608 168.314 91.0053 168.328L91.2837 168.338L95.2674 158.97L95.0673 158.776C94.6793 158.393 94.4281 158.098 94.3137 157.89C94.2046 157.67 94.2048 157.431 94.3144 157.173C94.3926 156.989 94.4868 156.87 94.597 156.815C94.7071 156.761 94.8235 156.76 94.9462 156.812L105.676 161.375L104.33 164.54C104.273 164.675 104.198 164.767 104.105 164.814C104.012 164.862 103.886 164.851 103.727 164.784C103.555 164.711 103.447 164.556 103.403 164.32C103.363 164.071 103.36 163.671 103.391 163.12L103.429 162.418L98.036 160.125L96.4472 163.861L100.625 165.638L101.22 165.108C101.429 164.922 101.607 164.795 101.752 164.726C101.909 164.663 102.043 164.654 102.154 164.701C102.411 164.811 102.488 164.988 102.384 165.234L100.85 168.841C100.745 169.087 100.564 169.155 100.307 169.045C100.196 168.998 100.109 168.896 100.046 168.738C99.9944 168.586 99.9632 168.37 99.9519 168.09L99.9208 167.294L95.7428 165.518L94.0366 169.53L99.7054 171.941L100.185 171.427C100.56 171.022 100.848 170.753 101.049 170.621C101.255 170.477 101.444 170.441 101.616 170.515C101.775 170.582 101.87 170.666 101.9 170.766C101.93 170.866 101.917 170.983 101.859 171.118L100.513 174.284L89.5068 169.603Z" fill="#1C1C1C"/>
<path d="M111.378 178.105C111.192 178.094 111.049 178.026 110.949 177.9C110.863 177.775 110.826 177.599 110.839 177.373C110.858 177.04 110.992 176.801 111.241 176.655C111.49 176.495 111.814 176.427 112.214 176.45L112.394 176.46L112.615 172.587L108.779 165.737L107.82 165.682C107.634 165.672 107.491 165.603 107.391 165.477C107.305 165.352 107.268 165.177 107.281 164.95C107.3 164.617 107.434 164.378 107.683 164.232C107.932 164.073 108.256 164.004 108.656 164.027L113.867 164.324C114.12 164.339 114.238 164.493 114.222 164.785C114.208 165.025 114.117 165.213 113.949 165.351C113.795 165.476 113.555 165.582 113.23 165.67L112.354 165.921L114.788 170.307L117.824 166.253L116.885 166.199C116.699 166.189 116.556 166.121 116.456 165.995C116.37 165.87 116.333 165.694 116.346 165.468C116.365 165.135 116.499 164.895 116.748 164.749C116.997 164.59 117.322 164.522 117.721 164.544L121.575 164.764C121.828 164.779 121.947 164.919 121.931 165.185C121.913 165.505 121.644 165.77 121.125 165.981L120.1 166.383L115.636 172.298L115.388 176.651L116.125 177.074C116.448 177.252 116.666 177.412 116.778 177.552C116.905 177.679 116.963 177.836 116.952 178.022C116.944 178.156 116.912 178.254 116.855 178.317C116.798 178.381 116.696 178.408 116.55 178.4L111.378 178.105Z" fill="#1C1C1C"/>
<path d="M128.08 179.026C127.948 179.045 127.835 179.014 127.743 178.933C127.651 178.852 127.59 178.713 127.562 178.515C127.522 178.237 127.584 178.013 127.748 177.841C127.91 177.656 128.228 177.429 128.701 177.159L128.944 177.023L127.497 166.946L127.225 166.884C126.695 166.758 126.328 166.636 126.122 166.517C125.915 166.386 125.791 166.181 125.751 165.904C125.723 165.706 125.741 165.555 125.807 165.451C125.873 165.348 125.972 165.286 126.104 165.267L137.646 163.61L138.135 167.015C138.156 167.16 138.139 167.277 138.084 167.366C138.029 167.455 137.916 167.511 137.745 167.536C137.56 167.562 137.387 167.486 137.227 167.307C137.065 167.115 136.854 166.775 136.596 166.287L136.264 165.667L130.464 166.5L131.041 170.519L135.535 169.874L135.769 169.113C135.852 168.845 135.937 168.644 136.026 168.51C136.128 168.374 136.238 168.298 136.357 168.281C136.634 168.241 136.791 168.353 136.829 168.617L137.386 172.497C137.424 172.761 137.305 172.913 137.027 172.953C136.909 172.97 136.781 172.928 136.645 172.826C136.523 172.722 136.384 172.554 136.229 172.32L135.79 171.655L131.297 172.301L131.916 176.616L138.014 175.741L138.157 175.054C138.268 174.512 138.375 174.133 138.479 173.916C138.581 173.686 138.724 173.558 138.909 173.531C139.08 173.507 139.205 173.529 139.282 173.599C139.359 173.669 139.409 173.776 139.429 173.921L139.918 177.326L128.08 179.026Z" fill="#1C1C1C"/>
<path d="M153.793 174.607C152.587 175.112 151.381 175.321 150.174 175.235C148.974 175.13 147.867 174.698 146.854 173.937C145.854 173.171 145.052 172.068 144.449 170.63C143.856 169.216 143.643 167.881 143.811 166.625C143.991 165.364 144.455 164.28 145.203 163.374C145.963 162.463 146.896 161.775 148.003 161.311C148.987 160.899 149.91 160.671 150.774 160.627C151.632 160.571 152.407 160.644 153.099 160.845L154.212 163.501C154.274 163.649 154.286 163.781 154.248 163.898C154.223 164.01 154.124 164.102 153.952 164.174C153.718 164.272 153.5 164.27 153.298 164.166C153.108 164.058 152.875 163.83 152.6 163.483L151.679 162.373C150.906 162.321 150.095 162.473 149.246 162.829C148.459 163.159 147.836 163.637 147.375 164.264C146.927 164.885 146.68 165.639 146.632 166.527C146.597 167.409 146.804 168.385 147.252 169.455C147.701 170.524 148.267 171.357 148.95 171.953C149.633 172.548 150.362 172.908 151.137 173.031C151.919 173.137 152.697 173.028 153.472 172.703C154.025 172.471 154.487 172.212 154.859 171.926C155.231 171.64 155.546 171.306 155.805 170.923C155.931 170.74 156.036 170.595 156.121 170.487C156.213 170.361 156.308 170.278 156.406 170.237C156.591 170.16 156.788 170.164 156.997 170.249C157.207 170.335 157.358 170.489 157.45 170.71C157.543 170.931 157.562 171.148 157.506 171.359C157.45 171.571 157.348 171.794 157.201 172.029C156.933 172.459 156.521 172.907 155.964 173.372C155.414 173.819 154.69 174.231 153.793 174.607Z" fill="#1C1C1C"/>
<path d="M163.357 168.808C163.211 168.923 163.058 168.967 162.9 168.939C162.753 168.902 162.609 168.795 162.469 168.617C162.262 168.355 162.204 168.087 162.294 167.813C162.375 167.528 162.573 167.262 162.887 167.014L163.044 166.891L159.11 154.46L161.64 152.468L172.846 159.198L173.553 158.997C173.887 158.904 174.148 158.868 174.335 158.891C174.514 158.902 174.665 158.987 174.789 159.144C175.004 159.416 175.022 159.623 174.844 159.763L170.507 163.178C170.36 163.293 170.208 163.337 170.05 163.309C169.902 163.272 169.758 163.165 169.618 162.987C169.412 162.725 169.354 162.457 169.443 162.183C169.524 161.898 169.722 161.632 170.036 161.384L170.461 161.05L168.343 159.816L164.038 163.206L164.785 165.545L165.881 165.191C166.246 165.073 166.518 165.02 166.697 165.032C166.876 165.044 167.024 165.123 167.139 165.27C167.321 165.5 167.322 165.686 167.144 165.826L163.357 168.808ZM166.646 158.76L161.616 155.669L163.425 161.296L166.646 158.76Z" fill="#1C1C1C"/>
<path d="M185.923 140.952C185.859 141.069 185.766 141.14 185.646 141.165C185.526 141.19 185.378 141.154 185.203 141.058C184.957 140.923 184.816 140.738 184.777 140.504C184.727 140.263 184.737 139.873 184.806 139.333L184.844 139.057L175.926 134.146L175.713 134.326C175.294 134.673 174.975 134.893 174.756 134.986C174.526 135.072 174.288 135.048 174.043 134.913C173.868 134.816 173.758 134.71 173.715 134.595C173.672 134.48 173.683 134.364 173.747 134.247L179.371 124.034L182.385 125.693C182.513 125.764 182.596 125.848 182.634 125.945C182.672 126.042 182.649 126.166 182.566 126.318C182.476 126.481 182.311 126.573 182.071 126.594C181.82 126.607 181.422 126.571 180.876 126.483L180.182 126.375L177.356 131.508L180.912 133.467L183.102 129.49L182.635 128.845C182.471 128.618 182.363 128.428 182.309 128.277C182.262 128.114 182.267 127.98 182.325 127.875C182.46 127.629 182.644 127.571 182.878 127.7L186.312 129.591C186.545 129.719 186.595 129.906 186.459 130.152C186.402 130.257 186.291 130.333 186.128 130.38C185.972 130.416 185.753 130.425 185.474 130.408L184.679 130.358L182.489 134.335L186.308 136.438L189.28 131.042L188.817 130.514C188.452 130.099 188.214 129.786 188.103 129.572C187.98 129.353 187.964 129.161 188.054 128.997C188.138 128.846 188.23 128.76 188.333 128.74C188.435 128.72 188.55 128.746 188.679 128.816L191.692 130.476L185.923 140.952Z" fill="#1C1C1C"/>
<path d="M176.619 155.783C176.505 155.93 176.368 156.01 176.208 156.021C176.056 156.022 175.89 155.953 175.71 155.815C175.446 155.611 175.324 155.365 175.344 155.078C175.353 154.782 175.48 154.475 175.724 154.159L175.834 154.016L167.549 147.631L167.311 147.776C166.854 148.063 166.516 148.24 166.296 148.306C166.077 148.373 165.866 148.329 165.666 148.174C165.507 148.052 165.416 147.931 165.391 147.81C165.365 147.69 165.394 147.577 165.475 147.472L169.48 142.276C170.424 141.051 171.454 140.304 172.569 140.036C173.674 139.76 174.739 140.016 175.763 140.806C176.661 141.498 177.168 142.326 177.283 143.29C177.396 144.236 177.132 145.244 176.491 146.316L182.075 146.049L182.93 145.497C183.218 145.298 183.46 145.181 183.655 145.146C183.85 145.111 184.027 145.155 184.185 145.277C184.291 145.358 184.359 145.445 184.39 145.536C184.41 145.619 184.376 145.718 184.286 145.834L181.747 149.129L174.434 149.149L177.681 151.652L178.446 151.282C178.776 151.116 179.031 151.026 179.21 151.012C179.386 150.98 179.548 151.021 179.696 151.135C179.802 151.216 179.865 151.298 179.885 151.381C179.905 151.464 179.871 151.564 179.781 151.68L176.619 155.783ZM174.378 146.404C174.817 145.834 175.001 145.268 174.928 144.707C174.845 144.138 174.513 143.63 173.932 143.182C173.351 142.735 172.78 142.547 172.219 142.62C171.648 142.684 171.142 143.002 170.703 143.572L169.396 145.267L173.071 148.099L174.378 146.404Z" fill="#1C1C1C"/>
<defs>
<filter id="filter0_d_119_200" x="85.9945" y="60.0748" width="58.0687" height="40.8522" filterUnits="userSpaceOnUse" color-interpolation-filters="sRGB">
<feFlood flood-opacity="0" result="BackgroundImageFix"/>
<feColorMatrix in="SourceAlpha" type="matrix" values="0 0 0 0 0 0 0 0 0 0 0 0 0 0 0 0 0 0 127 0" result="hardAlpha"/>
<feOffset dy="4"/>
<feGaussianBlur stdDeviation="2"/>
<feComposite in2="hardAlpha" operator="out"/>
<feColorMatrix type="matrix" values="0 0 0 0 0 0 0 0 0 0 0 0 0 0 0 0 0 0 0.29 0"/>
<feBlend mode="normal" in2="BackgroundImageFix" result="effect1_dropShadow_119_200"/>
<feBlend mode="normal" in="SourceGraphic" in2="effect1_dropShadow_119_200" result="shape"/>
</filter>
<filter id="filter1_d_119_200" x="0" y="49" width="118" height="118" filterUnits="userSpaceOnUse" color-interpolation-filters="sRGB">
<feFlood flood-opacity="0" result="BackgroundImageFix"/>
<feColorMatrix in="SourceAlpha" type="matrix" values="0 0 0 0 0 0 0 0 0 0 0 0 0 0 0 0 0 0 127 0" result="hardAlpha"/>
<feOffset dy="4"/>
<feGaussianBlur stdDeviation="2"/>
<feComposite in2="hardAlpha" operator="out"/>
<feColorMatrix type="matrix" values="0 0 0 0 0 0 0 0 0 0 0 0 0 0 0 0 0 0 0.29 0"/>
<feBlend mode="normal" in2="BackgroundImageFix" result="effect1_dropShadow_119_200"/>
<feBlend mode="normal" in="SourceGraphic" in2="effect1_dropShadow_119_200" result="shape"/>
</filter>
<filter id="filter2_d_119_200" x="122" y="8" width="118" height="118" filterUnits="userSpaceOnUse" color-interpolation-filters="sRGB">
<feFlood flood-opacity="0" result="BackgroundImageFix"/>
<feColorMatrix in="SourceAlpha" type="matrix" values="0 0 0 0 0 0 0 0 0 0 0 0 0 0 0 0 0 0 127 0" result="hardAlpha"/>
<feOffset dy="4"/>
<feGaussianBlur stdDeviation="2"/>
<feComposite in2="hardAlpha" operator="out"/>
<feColorMatrix type="matrix" values="0 0 0 0 0 0 0 0 0 0 0 0 0 0 0 0 0 0 0.29 0"/>
<feBlend mode="normal" in2="BackgroundImageFix" result="effect1_dropShadow_119_200"/>
<feBlend mode="normal" in="SourceGraphic" in2="effect1_dropShadow_119_200" result="shape"/>
</filter>
</defs>
</svg>
